# xmcd CD database file
#
# Track frame offsets:
#	150
#	26107
#	50917
#	76895
#
# Disc length: 1353 seconds
#
# Revision: 0
# Processed by: cddbd v1.5.1PL0 Copyright (c) Steve Scherf et al.
# Submitted via: CDex 1.51
#
DISCID=2e054704
DTITLE=岡村孝子 - Naturally
DYEAR=1994
DGENRE=JPop
TTITLE0=Naturally
TTITLE1=明日への道
TTITLE2=Naturally(オリジナルカラオケ)
TTITLE3=明日への道(オリジナルカラオケ)
EXTD=YEAR: 1994
EXTT0=
EXTT1=
EXTT2=
EXTT3=
PLAYORDER=
